Patient4_TMGait_0pt4_01_left_16_EMG.mot
version=1
nRows=26
nColumns=33
inDegrees=no
endheader
time	1LAddLong	2LGlutMax	3LGlutMed	4LIliopsoas	5LSemiMemb	6LBicFemLong	7LRecFem	8LVastMed	9LVastLat	10LGasMed	11LTibAnt	12lTibPost	13LPeroneusLong	14LSol	15LExtDigLong	16LFlexDigLong	17RAddLong	18RGlutMax	19RGlutMed	20RIliopsoas	21RSemiMemb	22RBicFemLong	23RRecFem	24RVastMed	25RVastLat	26RGasMed	27RTibAnt	28RTibPost	29RPeroneusLong	30RSol	31RExtDigLong	32RFlexDigLong
20.745	0.005188	-0.020599	0.02594	0.010071	0.018463	0.017853	-0.010681	0.014801	0.031586	0.17258	0.023346	0.011139	0.093536	-0.42114	0.027313	-0.000916	0.011902	0.007935	0.76141	-0.03952	0.084381	0.15335	0.083008	0.03952	0.007324	0.002594	-0.25009	-0.003204	0.073547	-0.023804	-0.00473	0.005798
20.746	-0.007172	-0.042877	0.046844	0.005188	0.026398	0.004272	-0.028381	0.010376	0.040131	0.09613	0.005035	0.010071	0.6398	-0.20691	0.076904	-0.000916	0.006866	-0.11643	0.20859	-0.085144	-0.17197	0.21606	0.10819	-0.007019	-0.003204	0.018158	-0.11643	-0.008545	-0.075684	-0.031281	-0.005798	0.011749
20.747	-0.007782	-0.03891	0.068512	-0.014496	0.023499	0.016632	0.021667	0.006104	0.055084	0.067902	0.012512	0.014343	0.27329	-0.092621	0.033569	-0.001984	0.002441	-0.19394	0.24918	-0.029755	-0.35492	0.30319	0.061646	0.010223	0.000458	0.011292	0.57831	-0.001373	-0.13229	-0.10757	-0.002899	0.01709
20.748	-0.001984	-0.031433	0.031433	-0.008545	-0.002441	0.019226	0.071564	0.007019	-0.10147	0.099335	-0.031891	0.006104	0.056305	-0.20691	-0.054321	0.000458	0.017548	-0.10025	0.21042	0.021362	-0.19745	0.23636	0.074921	0.000763	-0.008087	0.005341	0.60516	-0.002136	-0.29007	-0.04837	-0.003967	0.013123
20.749	0.00824	-0.005035	0.0177	0.000763	-0.015259	-0.010834	0.094757	0.004272	-0.000153	0.070953	-0.066528	0.005646	0.22583	-0.17166	-0.02533	0.011292	0.065002	-0.080872	0.41489	0.027313	-0.010986	0.271	0.14069	-0.059204	-0.018158	0.000458	0.47394	-0.00412	-0.1387	0.076904	0.007019	0.015411
20.75	0.007172	-0.061646	0.010834	0.002136	-0.048065	-0.027313	0.099335	0.005493	0.016022	0.053253	0.003967	0.01358	0.06012	-0.051422	0.075531	0.018005	0.059357	-0.072479	0.5246	-0.040283	0.27603	0.21332	0.084534	-0.10193	-0.012512	-0.000305	0.18768	-0.005951	0.007172	0.080109	-0.001984	0.012054
20.751	0.00824	-0.030365	0.009308	0.012207	-0.054169	-0.066681	-0.056915	0.012512	-0.011292	0.046234	-0.002899	0.018616	0.12451	-0.083008	0.070343	-0.006714	-0.018158	-0.044556	0.62424	-0.19272	0.37384	0.12985	0.006561	-0.075226	0.011139	-0.00824	-0.00946	-0.00824	0.007019	0.10773	-0.001984	0.003967
20.752	0.016937	-0.032196	0.008698	0.02655	0.049286	-0.049744	-0.10544	0.013885	-0.007019	0.011597	-0.055084	0.009308	-0.058289	-0.086975	0.10666	-0.008545	-0.066376	-0.10117	0.46219	-0.21286	-0.025024	0.13458	-0.042572	-0.028076	0.006409	-0.011292	0.055237	-0.003662	0.17303	0.13062	0.000153	0.000763
20.753	0.010834	-0.034637	-0.011444	0.008392	0.072937	0.048065	-0.059967	0.009918	-0.037689	-0.00885	-0.044556	0.003357	0.006409	0.021362	0.24963	-0.010529	-0.093079	-0.10117	0.16754	-0.098114	0.05127	0.30334	-0.081177	0.026093	0.027618	-0.011749	0.12421	-0.004425	0.29862	0.090332	-0.001831	-0.001678
20.754	0.018005	-0.030823	-0.053406	0.009003	0.056152	0.059052	-0.058594	-0.002136	0.023193	-0.009308	-0.045776	0.013733	0.16403	0.032959	0.087738	0.016479	-0.089874	-0.060883	0.10269	0.11536	-0.07309	0.25787	-0.061951	0.006104	0.023346	-0.00473	0.13504	-0.001221	0.17242	0.033417	-0.000153	0.004272
20.755	0.012207	0.018311	-0.13275	0.006561	0.021057	0.037689	-0.1326	-0.013275	0.15976	-0.024567	-0.03891	0.013123	0.0914	0.1796	-0.075836	-0.002289	-0.055847	0.002136	0.17609	0.20538	-0.21545	0.14832	-0.047302	0.079803	0.048218	-0.004425	0.24109	-0.003052	-0.025787	0.062561	-0.00351	0.003357
20.756	0.012817	-0.01709	-0.1648	-0.000916	0.001984	0.065765	-0.016327	-0.018616	0.14832	0.017242	0.023651	0.009613	-0.16174	0.2095	-0.11414	0.00351	-0.068512	-0.035706	0.47043	0.080566	-0.20889	0.27298	-0.030365	0.08606	0.042267	-0.003204	0.24368	-0.003967	-0.10559	0.072937	-0.001526	0.002594
20.757	0.036621	-0.010071	0.0177	0.010834	-0.00946	0.054016	0.048218	-0.014191	0.068665	0.086975	0.068665	0.015717	0.19134	0.18524	-0.090179	0.009308	-0.045319	-0.028839	0.57083	0.038605	-0.041199	0.35492	-0.013733	0.03006	0.043335	-0.001373	0.087128	-0.006561	-0.08255	0.012054	-0.006866	0.005341
20.758	-0.064392	-0.039215	0.009003	0.006714	-0.003967	0.041962	0.035858	-0.007782	0.020752	0.075836	0.028381	0.011444	0.18219	0.23697	-0.027618	0.012054	-0.033875	-0.044403	0.20874	0.03418	0.050659	0.21591	0.009766	-0.041046	0.012512	-0.005493	0.074768	-0.005035	0.35965	0.050812	-0.004883	0.012054
20.759	-0.071106	-0.033875	0.016937	-0.005493	-0.002441	0.03418	0.01236	-0.008545	0.005798	0.09552	0.011597	0.007477	-0.39215	0.20309	-0.045471	-0.006561	-0.013885	-0.042877	0.0914	0.027771	0.018921	0.11536	0.041046	-0.052795	0.010529	-0.003052	0.019531	-0.003967	0.35141	0.014954	0.001984	0.020294
20.76	-0.019073	-0.055695	-0.007782	0.010529	-0.03479	0.045319	0.001984	0.000305	0.019684	0.072937	-0.00946	0.002899	-0.72555	0.052643	-0.16861	0.001526	-0.003357	-0.023041	0.1445	-0.00412	-0.046082	0.083008	-0.048218	-0.053406	0.019684	0.000916	0.010986	-0.004425	0.10452	-0.018311	-0.001221	0.042725
20.761	-0.008087	-0.033417	-0.022583	0.004883	-0.050812	0.038605	-0.010223	0.001068	0.035248	0.040283	0.059052	0.004883	-0.18402	-0.066376	-0.24841	-0.013275	0.005798	-0.005798	0.41412	-0.001831	-0.10651	0.095215	-0.028076	-0.011749	0.020599	0.005646	-0.038452	-0.003204	-0.19241	-0.039978	-0.003357	0.063324
20.762	0.005341	-0.028687	-0.092926	-0.00412	-0.049133	0.005646	0.010529	0.000305	0.052643	-0.099182	0.064545	0.003204	0.12848	0.010071	-0.18555	0.000458	0.008698	-0.052948	0.43976	0.024872	-0.089874	0.15579	-0.000916	-0.056305	0.029297	0.003967	-0.039673	0.000305	-0.51575	-0.065918	-0.009613	0.10101
20.763	0.001068	-0.028992	-0.23575	0.005798	0.03891	0.005035	-0.006409	0.007019	0.029144	-0.1091	-0.01358	0.011139	-0.055542	0.036621	-0.056152	0.022125	0.019531	-0.091858	0.24277	0.016479	-0.031433	0.10422	-0.020142	-0.031738	0.031128	-0.001831	-0.000916	-0.007782	-0.11108	-0.005341	-0.002747	0.17944
20.764	-0.007324	-0.007629	-0.12314	-0.005188	0.060883	0.034027	-0.008392	-0.001526	-0.047913	-0.066833	-0.15854	0.01236	-0.052338	0.058289	0.05127	-0.005035	0.058289	-0.06546	0.22018	-0.028076	-0.075989	0.084229	0.005951	-0.058899	0.024872	-0.003052	0.005188	-0.004578	0.16327	0.058899	-0.002441	-0.11169
20.765	0.004425	-0.029755	-0.080109	0.008087	0.031738	0.039368	0.014648	0.00412	-0.037231	0.001526	-0.19073	0.011597	0.041504	0.007019	0.17746	-0.012054	0.056305	-0.074921	0.21133	-0.007324	-0.10147	0.045471	0.059357	-0.10101	0.018768	-0.014954	0.14923	-0.002289	0.15411	0.084839	0.000153	-0.15533
20.766	-0.004272	-0.066376	0.040283	0.031891	0.018463	0.040894	-0.001678	0.011597	0.02121	0.035706	-0.075836	0.004425	-0.086975	0.00824	0.20783	-0.005341	0.048676	-0.062866	0.18036	0.072021	0.17883	0.082397	0.04364	-0.13229	0.020905	-0.009918	0.28641	0	0.049286	0.003204	-0.000916	-0.20264
20.767	0.005188	-0.044708	0.038147	-0.012817	0.026703	0.016174	0.012054	-0.003204	0.032196	0.015106	0.066681	0.005951	-0.17364	0.066376	0.17944	0.011139	0.001221	-0.019531	-0.048523	0.12421	0.23621	0.11246	0.047455	-0.09613	0.015564	-0.008698	0.27863	-0.003815	0.032654	-0.042114	-0.001831	-0.21576
20.768	0.012054	-0.04776	0.12039	-0.024414	-0.006561	0.005341	0.019379	0.001526	0.006714	-0.040741	0.041046	0.011749	0.050812	0.12955	0.21988	0.00824	-0.015564	0.012665	-0.53604	0.091705	0.039215	0.11246	0.00351	-0.011444	0.026703	-0.005188	0.17212	-0.000458	0.068817	-0.054321	-0.00412	-0.20264
20.769	0.008545	0.010681	0.078278	-0.021057	-0.005188	-0.05661	0.03418	-0.003204	0.022125	0.009918	0.037231	0.009308	-0.087891	0.012665	-0.072021	0.003204	0.007629	0.047913	-0.41687	-0.010376	-0.18341	0.16876	0.015869	0.048218	0.019531	0.000153	-0.13718	-0.001831	0.20676	-0.068817	-0.001068	-0.17883
20.77	0.008392	-0.00412	0.054932	-0.016937	0.022583	-0.043488	0.040741	-0.001068	0.029449	-0.18005	0.041809	0.007019	-0.058594	-0.087433	-0.20889	0.009766	0.018005	0.028229	-0.1329	-0.31555	-0.13092	0.27069	0.068054	-0.012817	-0.013123	-0.002289	-0.11887	-0.005188	0.23086	-0.072937	-0.005188	-0.15396
